<svg width="100" height="70" viewBox="0 0 100 70" fill="none" xmlns="http://www.w3.org/2000/svg">
<path d="M9.99997 19.9998C9.99997 8.95288 18.9531 -0.000244141 30 -0.000244141H70C81.0468 -0.000244141 90 8.95288 90 19.9998V25.2498C84.2968 26.406 80 31.4529 80 37.4998V44.9998H20V37.4998C20 31.4529 15.7031 26.406 9.99997 25.2498V19.9998ZM85 37.4998C85 34.2341 87.0937 31.4529 90 30.4216C90.7812 30.1404 91.625 29.9998 92.5 29.9998C96.6406 29.9998 100 33.3591 100 37.4998V64.9998C100 67.7654 97.7656 69.9998 95 69.9998H90C87.2343 69.9998 85 67.7654 85 64.9998H15C15 67.7654 12.7656 69.9998 9.99997 69.9998H4.99997C2.23434 69.9998 -3.05176e-05 67.7654 -3.05176e-05 64.9998V37.4998C-3.05176e-05 33.3591 3.35934 29.9998 7.49997 29.9998C8.37497 29.9998 9.21872 30.156 9.99997 30.4216C12.9062 31.4529 15 34.2341 15 37.4998V44.9998V49.9998H20H80H85V44.9998V37.4998Z" fill="#9C9C9C"/>
</svg>
