<svg width="50" height="40" viewBox="0 0 50 40" fill="none" xmlns="http://www.w3.org/2000/svg">
<path d="M15.6727 2.50305C16.0164 1.52656 15.5086 0.456338 14.5321 0.112616C13.5557 -0.231106 12.4854 0.276665 12.1417 1.25315L11.3058 3.61233L10.5325 1.2844C10.2044 0.300101 9.14196 -0.231106 8.15766 0.0969925C7.17337 0.425091 6.64216 1.4875 6.97026 2.4718L7.61864 4.42477L5.47819 2.86239C4.64232 2.25307 3.47054 2.44055 2.86122 3.27642C2.25189 4.11229 2.43938 5.28407 3.27525 5.8934L5.486 7.50264H3.75177C1.68163 7.50264 0.0020752 9.18219 0.0020752 11.2523V36.2503C0.0020752 38.3204 1.68163 40 3.75177 40H15.6727C15.2508 39.2657 15.0009 38.4142 15.0009 37.5002V20.0016C15.0009 17.6659 16.6023 15.7051 18.7662 15.1583C18.9068 12.7366 20.102 10.6118 21.8987 9.21344C21.2269 8.18227 20.0708 7.50264 18.7505 7.50264H17.0163L19.2271 5.8934C20.0629 5.28407 20.2504 4.11229 19.6411 3.27642C19.0318 2.44055 17.86 2.25307 17.0241 2.86239L15.0399 4.30759L15.6727 2.50305ZM28.3982 14.4943L30.7105 17.5018H26.8749C25.8359 17.5018 25 16.666 25 15.627C25 14.6036 25.8437 13.7521 26.8905 13.7521C27.4842 13.7521 28.0389 14.0255 28.3982 14.4943ZM21.2503 15.627C21.2503 16.2832 21.3597 16.9159 21.5706 17.5018H21.2503C19.1802 17.5018 17.5007 19.1814 17.5007 21.2515V27.501H32.4994V20.0016H34.9992V27.501H49.998V21.2515C49.998 19.1814 48.3185 17.5018 46.2483 17.5018H45.928C46.139 16.9159 46.2483 16.2832 46.2483 15.627C46.2483 12.51 43.7095 10.0024 40.6081 10.0024C38.8583 10.0024 37.2022 10.8149 36.1319 12.2054L33.7493 15.2989L31.3667 12.2054C30.2965 10.8149 28.6326 10.0024 26.8905 10.0024C23.7892 10.0024 21.2503 12.51 21.2503 15.627ZM17.5007 36.2503C17.5007 38.3204 19.1802 40 21.2503 40H32.4994V30.0008H17.5007V36.2503ZM34.9992 40H46.2483C48.3185 40 49.998 38.3204 49.998 36.2503V30.0008H34.9992V40ZM42.4986 15.627C42.4986 16.666 41.6628 17.5018 40.6238 17.5018H36.7881L39.1005 14.4943C39.4598 14.0334 40.0144 13.7521 40.6081 13.7521C41.6549 13.7521 42.4986 14.6036 42.4986 15.627Z" fill="#9C9C9C"/>
</svg>
