<svg width="50" height="40" viewBox="0 0 50 40" fill="none" xmlns="http://www.w3.org/2000/svg">
<g clip-path="url(#clip0_58_60)">
<path d="M16.5466 0C17.156 0 17.6638 0.445312 17.8513 1.03125C18.8123 4.05469 21.6482 6.25 24.9998 6.25C28.3513 6.25 31.1873 4.05469 32.1482 1.03125C32.3357 0.445312 32.8435 0 33.4529 0H34.4373C36.1951 0 37.8904 0.617188 39.242 1.74219L49.1013 9.95312C49.617 10.3828 49.9373 11.0078 49.992 11.6797C50.0466 12.3516 49.8279 13.0156 49.3826 13.5234L45.0076 18.5234C44.1169 19.5469 42.5701 19.6641 41.5232 18.7969L37.4998 15.4453V35C37.4998 37.7578 35.2576 40 32.4998 40H17.4998C14.742 40 12.4998 37.7578 12.4998 35V15.4453L8.47633 18.7969C7.43727 19.6641 5.89039 19.5469 4.99195 18.5234L0.616954 13.5234C0.171642 13.0156 -0.0471083 12.3516 0.00757923 11.6797C0.0622667 11.0078 0.382579 10.3828 0.898204 9.95312L10.7576 1.74219C12.1091 0.617188 13.8045 0 15.5623 0H16.5466Z" fill="#9C9C9C"/>
</g>
<defs>
<clipPath id="clip0_58_60">
<rect width="50" height="40" fill="#9C9C9C"/>
</clipPath>
</defs>
</svg>
